<svg xmlns="http://www.w3.org/2000/svg" width="91.69" height="100" version="1.1" viewBox="0 0 91.69 100" xml:space="preserve"><metadata/><path fill="#000" fill-rule="evenodd" d="m46.63,41.402-14.643,6.2894,13.562,5.7981,15.724-5.7981-14.643-6.2894zm-22.013,7.8618-0.49136,28.302,21.423,9.4341,0-29.383-20.932-8.3531zm44.026,0-19.36,7.3704,0,27.713,19.36-7.8618,0-27.221z"/><path fill="#000" fill-rule="evenodd" d="M22.504,1.0456,7.8618,7.335,21.423,13.133,37.147,7.335,22.504,1.0456zm-22.013,7.8618-0.49136,28.303l21.423,9.4341v-29.383l-20.932-8.3536zm44.026,0-19.36,7.3704,0,27.713,19.36-7.8618,0-27.221z"/><path fill="#000" fill-rule="evenodd" d="M69.675-0.000001,55.032,6.2894,68.594,12.087,84.317,6.2894,69.675-0.000001zm-22.013,7.8618-0.492,28.302l21.423,9.4341v-29.383l-20.931-8.3532zm44.026,0-19.36,7.3704,0,27.713,19.36-7.8618,0-27.221z"/></svg>