<svg xmlns="http://www.w3.org/2000/svg" xmlns:svg="http://www.w3.org/2000/svg" id="Layer_1" width="100%" height="100%" x="0" y="0" enable-background="new 0 0 32 21" version="1.1" viewBox="0 0 32 32" xml:space="preserve"><metadata id="metadata15"/><g id="g3" transform="translate(0,5.5960265)"><g id="g5"><path id="path7" d="m 19,11.9 c -0.8,0 -1.5,0.5 -1.9,1.2 H 5.3 v 0 c -2,0 -3.6,-1.7 -3.6,-3.7 0,-2 1.6,-3.7 3.6,-3.7 v 0 h 0 0 H 7 C 7,5.3 7.2,4.9 7.3,4.5 7.4,4.4 7.4,4.2 7.5,4.1 8.3,2.6 9.9,1.6 11.7,1.6 c 1.6,0 3,0.8 3.9,2 0.5,-0.2 1,-0.4 1.6,-0.5 C 16.1,1.2 14.1,0 11.7,0 9,0 6.7,1.7 5.7,4.1 c 0,0 0,0 0,0 l 0,0 c 0,0 0,0 0,0 H 5.3 C 2.4,4.1 0,6.5 0,9.5 c 0,3 2.4,5.3 5.3,5.3 h 11.9 c 0.3,0.7 1,1.2 1.9,1.2 1.1,0 2,-0.9 2,-2.1 0,-1.2 -0.9,-2 -2.1,-2 z"/><path id="path9" d="M 25.6,7.8 C 24.4,5.4 21.9,3.7 19.1,3.7 15.6,3.7 12.7,6.2 12,9.5 10.3,9.7 8.8,10.6 7.9,11.9 h 8.7 c 0.6,-0.8 1.5,-1.2 2.5,-1.2 1.8,0 3.2,1.5 3.2,3.3 0,1.8 -1.5,3.3 -3.2,3.3 -1,0 -1.9,-0.5 -2.5,-1.2 H 6.9 c 0.4,2.8 2.8,5 5.6,5 0,0 0,0 0,0 v 0 h 13 v 0 c 0,0 0,0 0,0 3.6,0 6.5,-2.9 6.5,-6.6 0,-3.7 -2.9,-6.6 -6.4,-6.7 z"/></g></g></svg>