<svg xmlns="http://www.w3.org/2000/svg" id="svg1926" version="1.0" viewBox="0 0 99.31 100"><metadata id="metadata8"/><path id="path2009" fill="#0033bf" fill-rule="evenodd" d="m31.997,17.493c0-3.2814-2.0189-7.4592-10.518-7.4592h-13.064l-3.709,17.18h13.617c10.637,0,13.674-5.0297,13.674-9.7208zm35.195,0c0-3.2814-2.02-7.4592-10.498-7.4592h-13.063l-3.709,17.18h13.616c10.639,0,13.652-5.0297,13.654-9.7208zm-39.901,25.863c0-3.2814-2.0185-7.4758-10.518-7.4758h-13.064l-3.709,17.194h13.611c10.637,0,13.68-5.0501,13.68-9.7189zm35.195,0c0-3.2814-2.0204-7.4758-10.498-7.4758h-13.083l-3.71,17.194h13.616c10.637,0,13.674-5.0501,13.675-9.7189zm36.822-10.476c0-3.2981-2.0363-7.4758-10.513-7.4758-3.4844-0.0015-13.064,0-13.064,0l-3.709,17.178s7.0483,0.0015,13.611,0.0015c10.637-0.0015,13.674-5.0354,13.675-9.7041zm-5.0709,26.925c0-3.3022-2.02-7.4607-10.519-7.4607h-13.063l-3.709,17.18h13.61c10.643,0,13.68-5.0547,13.681-9.7189zm-36.807,10.491c0-3.3189-2.0189-7.4966-10.497-7.4966h-13.085l-3.709,17.201h13.617c10.637,0,13.674-5.0343,13.674-9.7041z"/></svg>