<svg xmlns="http://www.w3.org/2000/svg" width="73.14" height="100" x="0" y="0" enable-background="new 0 0 1000 1405.488" version="1.1" viewBox="0 0 73.14 100" xml:space="preserve"><metadata/><path fill="#000" d="m51.875,30.655s-1.1792-10.995-12.088-11.3c-10.909-0.30531-16.512,8.2462-16.512,20.462s6.1918,21.99,16.806,21.99,11.794-12.216,11.794-12.216l20.344,1.2215s1.1979,11.033-7.3154,19.451c-8.5134,8.4171-18.963,9.7923-26.26,9.7351-7.2972-0.05825-17.415,0.11433-27.199-9.9068-9.7848-10.021-11.445-19.756-11.445-29.319s1.8555-22.232,13.489-31.839c7.907-6.5281,15.922-8.9333,23.938-8.9333,33.465,0,35.713,30.865,35.713,30.865l-21.265-0.21047z"/></svg>