<svg xmlns="http://www.w3.org/2000/svg" xmlns:svg="http://www.w3.org/2000/svg" id="Page_1" width="100%" height="100%" data-name="Page 1" version="1.1" viewBox="0 0 207.838 274.46"><metadata id="metadata3544"/><title id="title3535">code-ignitor</title><g id="Layer_1-2" data-name="Layer 1" transform="translate(-47.760009,-60.02)"><path id="path3538" d="m 47.76,334.48 c 1.22,-7.76 2.07,-15.61 3.73,-23.27 6.26,-28.9 19.84,-54.33 37.71,-77.62 20.42,-26.62 44.82,-49.37 70,-71.39 14.57,-12.77 29,-25.75 40,-41.87 C 207,109 213.12,97 215,83.11 c 1,-7.27 0,-13.65 -3.43,-23.09 2.69,2.29 5.49,4.48 8.07,6.9 17.5,16.42 30.16,35.66 34.77,59.62 2.8,14.54 0.27,28.5 -3.65,42.51"/></g></svg>