<svg xmlns="http://www.w3.org/2000/svg" xmlns:svg="http://www.w3.org/2000/svg" id="Layer_1" width="384" height="448" x="0" y="0" enable-background="new 0 0 512 512" version="1.1" viewBox="0 0 384 448" xml:space="preserve"><metadata id="metadata3752"/><g id="g3742" transform="translate(-64,-32)"><path id="path3744" d="M 354.676,366.898 256.068,395.023 157.61,366.775 150.864,289 h 48.253 l 3.433,39.563 53.586,15.163 0.132,0.273 h 0.034 L 309.769,329.147 315.381,265 H 203 l -4,-50 h 120.646 l 4.396,-51 H 140 l -4,-49 h 240.58 l -21.904,251.898 z"/><path id="path3746" d="M 64,32 98.936,435.301 255.769,480 413.014,435.295 448,32 H 64 z M 383.041,410.51 255.779,446.697 128.912,410.528 98.896,64 H 413.1 l -30.059,346.51 z"/></g></svg>