<svg xmlns="http://www.w3.org/2000/svg" xmlns:svg="http://www.w3.org/2000/svg" xmlns:xlink="http://www.w3.org/1999/xlink" id="svg3103" width="368" height="368" x="0" y="0" baseProfile="basic" version="1.1" viewBox="0 0 368 368" xml:space="preserve"><title id="title4013">Erlang Logotype</title><g id="g3125" transform="translate(-7.652887,61.17541)"><path id="path3113" fill="#9A0000" d="M144.507,61.054l94.291-0.361 c0,0,3.411-46.242-47.326-46.242C166.881,14.451,144.507,37.572,144.507,61.054z"/><path id="path3121" fill="#9A0000" d="M61.054,9.754h-48.41v226.154 l55.274,0.361C67.918,236.27-25.289,133.669,61.054,9.754z"/><path id="path3123" fill="#9A0000" d="M370.661,9.393 l-0.723,226.877h-44.797c0,0,28.179-32.514,31.792-45.52c-34.474-17.706-53.829-26.734-53.829-26.734s-25.331,56.21-84.898,58.887 c-64.306,2.89-78.757-75.505-76.95-109.826c76.756,0,115.942,1.084,207.729,1.084c1.806-2.529,5.904-70.039-24.928-104.407 C329.402,9.273,370.661,9.393,370.661,9.393L370.661,9.393z"/></g></svg>