<svg xmlns="http://www.w3.org/2000/svg" xmlns:svg="http://www.w3.org/2000/svg" id="Layer_1" width="384" height="448" x="0" y="0" enable-background="new 0 0 512 512" version="1.1" viewBox="0 0 384 448" xml:space="preserve"><metadata id="metadata4274"/><g id="g4264" transform="translate(-64,-32)"><path id="path4266" d="M 64,32 98.936,435.301 255.769,480 413.014,435.295 448,32 H 64 z M 383.041,410.51 255.779,446.697 128.912,410.528 98.896,64 H 413.1 l -30.059,346.51 z"/><polygon id="polygon4268" points="255.991 342.734 202.225 328.064 198.801 289 150.55 289 157.313 366.336 255.991 394.146 354.486 366.163 367.991 215 191.991 215 188 164 371.991 164 376.199 114.316 135.421 114.188 147.991 264 314.984 264 309.411 327.986"/></g></svg>