<svg xmlns="http://www.w3.org/2000/svg" id="Layer_1" width="55.79" height="100" x="0" y="0" enable-background="new 0 0 98.867 100" version="1.0" viewBox="0 0 55.79 100" xml:space="preserve"><metadata id="metadata13"/><rect id="rect3" width="24.94" height="4.278" x="29.289" y="46.441" transform="matrix(0.86597575,0.500086,-0.500086,0.86597575,0,0)"/><path id="path5" d="M43.637,78.138c6.239-5.891,10.189-14.167,10.189-23.404,0-11.38-5.9752-21.646-15.271-27.412l10.414-18.025-1.636-0.9422,2.568-4.4666-6.733-3.888-2.575,4.4605-1.722-0.9953-25.6,44.348,2.2359,1.2911-3.1746,5.4906,5.6254,3.2503,3.1746-5.4958,2.2316,1.2902,10.765-18.642c6.6007,4.2073,10.838,11.581,10.838,19.739,0,12.904-10.508,23.404-23.413,23.404h-18.863v8.861h53.099v-8.8618h-12.152z"/></svg>