<svg xmlns="http://www.w3.org/2000/svg" xmlns:svg="http://www.w3.org/2000/svg" id="Layer_1" width="100%" height="100%" x="0" y="0" version="1.1" viewBox="0 0 143.4 131.75" xml:space="preserve"><metadata id="metadata4706"/><g id="g3" transform="translate(-37,-19.202087)"><path id="path5" d="m 78.6,78.2 -23,8.4 c 0.3,3.7 0.9,7.3 1.8,10.9 l 21.9,-8 c -0.7,-3.6 -1,-7.4 -0.7,-11.3"/><path id="path7" d="m 180.4,52.8 c -1.6,-3.3 -3.5,-6.5 -5.6,-9.5 l -23,8.4 c 2.7,2.7 4.9,5.8 6.8,9.1 -0.1,-0.1 21.8,-8 21.8,-8 z"/><path id="path9" d="m 129.7,46.3 c 4.8,2.2 8.9,5.3 12.4,8.9 l 23,-8.4 C 158.7,37.9 150,30.4 139.4,25.4 106.6,10 67.3,24.3 52,57.2 c -5,10.6 -6.8,22 -5.9,32.9 l 23,-8.4 c 0.4,-5 1.6,-10 3.8,-14.8 9.9,-21.3 35.4,-30.6 56.8,-20.6"/><path id="path11" d="M 58.9,97 37,105 c 2,8 5.5,15.6 10.3,22.3 l 23,-8.4 c -6,-6 -9.9,-13.7 -11.4,-21.9"/><path id="path13" d="m 154.3,88.3 c -0.4,5 -1.6,10 -3.9,14.8 -10,21.4 -35.5,30.7 -56.9,20.7 -4.8,-2.2 -9,-5.3 -12.5,-8.8 l -23,8.4 c 6.4,8.9 15,16.4 25.7,21.4 32.9,15.3 72.2,1.1 87.5,-31.9 5,-10.6 6.8,-22 5.9,-32.9 l -22.8,8.3 0,0 z"/><path id="path15" d="m 159.9,60.2 -21.9,8 c 4.1,7.3 6,15.7 5.4,24.1 l 23,-8.4 c -0.7,-8.2 -2.9,-16.3 -6.5,-23.7"/></g></svg>