<svg xmlns="http://www.w3.org/2000/svg" id="Layer_1" x="0" y="0" enable-background="new 0 0 100 100" version="1.1" viewBox="0 0 100 100" xml:space="preserve"><metadata id="metadata15"/><path id="path5" d="M0,2.385v84.615h100v-84.615h-100zm92.308,76.924h-84.616v-61.539h84.615v61.539z"/><path id="path3768" fill="#000" d="m44.45,27.012-2.8261,11.126,6.0389,0,2.7964-11.126,6.6636,0-2.8856,11.126,5.7414,0,0,6.3959-7.3181,0-2.2014,8.7163,6.0984,0,0,6.3959-7.6751,0-2.7964,11.096-6.5744,0,2.7964-11.096-6.0984,0-2.7964,11.096-6.5744,0,2.7964-11.096-6.1579,0,0-6.3959,7.7346,0,2.2014-8.7163-6.5149,0,0-6.3959,8.1511,0,2.7964-11.126,6.6041,0m1.6362,17.522-6.0984,0-2.2014,8.7163,6.0984,0,2.2014-8.7163" style="text-align:start"/><path id="path3770" fill="#000" d="m64.848,62.324,7.9428,0,0,8.4188-7.9428,0,0-8.4188m0-35.996,7.9428,0,0,19.485-0.9817,10.62-5.9199,0-1.0412-10.62,0-19.485" style="text-align:start"/></svg>