<svg xmlns="http://www.w3.org/2000/svg" xmlns:xlink="http://www.w3.org/1999/xlink" id="Layer_1" x="0" y="0" version="1.1" viewBox="0 0 268.8 252.9" xml:space="preserve" style="enable-background:new 0 0 268.8 252.9"><title>sitefinitity-logo</title><path d="M134.7,118.8l-41,41L134.7,118.8L134.7,118.8z"/><path d="M242.8,92.9l26-26L201.8,0l-67,67.3l0,0L67.8,0L0.6,66.9l26,25.9l41-41.1l41,41l-41,41l0,0l-26,26l93,93l93.1-92.9l-67-67	l41-41L242.8,92.9z M175.8,159.9l-41,41l-41-41l41-41L175.8,159.9z"/><line x1=".6" x2="0" y1="66.8" y2="66.2"/></svg>