<svg xmlns="http://www.w3.org/2000/svg" xmlns:svg="http://www.w3.org/2000/svg" id="Your_Icon" width="100" height="100" x="0" y="0" version="1.1" viewBox="0 0 100 100" xml:space="preserve"><metadata id="metadata9"/><g id="layer1" transform="matrix(0.36793692,0,0,0.36625244,-108.77469,-123.95352)"><path style="fill:#000" id="path2830" d="m 296.78571,612.63003 c 0,0 104.06285,-132.7859 104.06285,-132.7859 0,0 -104.06285,-140.24982 -104.06285,-140.24982 l 67.30299,0 c 0,0 83.34749,113.48826 83.34749,113.48826 l -126.86477,159.54746 -23.78571,0 z M 417.28794,500.06578 544.11662,339.59431 c 0,0 24.45481,0 24.45481,0 L 464.47749,471.26578 c 0,0 104.09394,141.36425 104.09394,141.36425 l -67.30357,0 c 0,0 -83.97992,-112.56425 -83.97992,-112.56425 z"/></g></svg>